<svg height="40" viewBox="0 0 40 40" width="40" xmlns="http://www.w3.org/2000/svg"><path d="m37.431 18.651c-2.996 4.238-8.301 7.007-13.886 7.007-1.841 0-3.611-.302-5.265-.857v-.884h7.835v-3.482l-14.798-5.223-3.482.696v11.665l2.449-.735c3.016 4.039 7.834 6.654 13.262 6.654 8.562 0 15.604-6.505 16.455-14.842zm-32.208 4.395h-2.611v-2.612h2.612v-6.964h-5.224v16.54h5.223z"/><path cx="350" cy="144.758" d="m36.56 12.601a6.093 6.093 0 0 1 -6.093 6.093 6.093 6.093 0 0 1 -6.093-6.093 6.093 6.093 0 0 1 12.187 0" r="70"/></svg>