            <svg
      xmlns="http://www.w3.org/2000/svg"
      viewBox="0 0 40 40"
      xmlSpace="preserve"
      width="40"
      height="40"
       className="text-gray-900 dark:text-gray-100 fill-current"
    >
      <path d="M37.431 18.651c-2.996 4.238 -8.301 7.007 -13.886 7.007 -1.841 0 -3.611 -0.302 -5.265 -0.857v-0.884h7.835v-3.482l-14.798 -5.223 -3.482 0.696v11.665l2.449 -0.735c3.016 4.039 7.834 6.654 13.262 6.654 8.562 0 15.604 -6.505 16.455 -14.842zM5.223 23.046H2.612v-2.612h2.612v-6.964H0v16.54h5.223z" />
      <path
        cx="350"
        cy="144.758"
        r="70"
        d="M36.56 12.601a6.093 6.093 0 0 1 -6.093 6.093 6.093 6.093 0 0 1 -6.093 -6.093 6.093 6.093 0 0 1 12.187 0"
      />
    </svg>