 <svg
            xmlns="http://www.w3.org/2000/svg"
            width="40"
            height="40"
            viewBox="0 0 2.6 2.6"
            xmlSpace="preserve"
             className="text-gray-900 dark:text-gray-100 fill-current"
        >
            <path d="M1.42 1.9h-.25c-.04 0-.07-.03-.07-.07v-.075a.5.5 0 0 1 .335-.47.4.4 0 0 0-.12-.775.4.4 0 0 0-.295.11.35.35 0 0 0-.115.22C.9.87.87.895.83.895H.58C.535.895.5.86.505.815.525.625.61.455.745.32c.16-.15.365-.23.585-.225a.801.801 0 0 1 .245 1.555c-.045.02-.075.055-.075.1v.075c0 .045-.04.075-.08.075m.08.525c0 .04-.035.075-.075.075h-.25a.077.077 0 0 1-.075-.075v-.25c0-.04.035-.075.075-.075h.25c.04 0 .075.035.075.075z" />
        </svg>