  <svg
            height="40"
            width="40"
            xmlns="http://www.w3.org/2000/svg"
            viewBox="0 0 25.6 25.6"
            xmlSpace="preserve"
             className="text-gray-900 dark:text-gray-100 fill-current"
        >
            <path d="M15.375 3.22c1.595 0 3.46 0.7 4.79 1.595V1.09C18.815 0.445 16.975 0.025 15.375 0.025 12.715 0.025 10.83 0.735 9.05 2.265s-3.155 3.57 -3.79 6.275H3.135v3.195h2.13v2.13H3.135v3.195h2.13c1.065 5.855 4.79 8.515 10.115 8.515 2.13 0 3.14 -0.21 4.79 -1.065v-3.725c-1.63 1 -3.295 1.595 -4.79 1.595 -3.21 0 -5.15 -1.7 -5.975 -5.315l8.635 -0.005v-3.195H9.52v-2.13h8.515v-3.195H9.52c0.445 -1.69 1.19 -2.965 2.305 -3.97 1.12 -1.005 1.955 -1.35 3.55 -1.35" />
        </svg>