  <svg
    xmlns="http://www.w3.org/2000/svg"
    viewBox="0 0 512 512"
    className="w-6 h-6 text-gray-900 dark:text-gray-100 fill-current"
  >
    <path d="M266.667 320c52.928 0 96-43.072 96-96v-64c0-52.928-43.072-96-96-96H96c-52.928 0-96 43.072-96 96v64c0 52.928 43.072 96 96 96h10.667v53.333c0 4.309 2.603 8.213 6.592 9.856 1.301.555 2.709.811 4.075.811 2.773 0 5.504-1.088 7.552-3.115L185.749 320z" />
    <path d="M416 128h-20.288c-3.008 0-5.867 1.28-7.893 3.499l-2.539 2.795a10.62 10.62 0 0 0-2.645 8.725c.811 5.547 1.365 11.179 1.365 16.96v64c0 64.704-52.651 117.333-117.333 117.333h-65.195a10.68 10.68 0 0 0-7.893 3.477l-5.099 5.611a10.66 10.66 0 0 0-2.709 8.341 10.72 10.72 0 0 0 4.437 7.552C206.528 377.877 225.579 384 245.333 384h80.917l60.885 60.885a10.66 10.66 0 0 0 7.531 3.115c1.365 0 2.773-.256 4.075-.811a10.67 10.67 0 0 0 6.592-9.856V384H416c52.928 0 96-43.072 96-96v-64c0-52.928-43.072-96-96-96" />
  </svg>