<svg xmlns="http://www.w3.org/2000/svg" className="text-gray-900 dark:text-gray-100 fill-current"  width="32" height="44.8" viewBox="0 0 32 44.8"><path style="fill-opacity:1;stroke:none;stroke-width:64;stroke-miterlimit:4;stroke-dasharray:none;stroke-opacity:1" d="M12.8 0A12.8 12.8 0 0 0 0 12.8a12.8 12.8 0 0 0 7.86 11.806L3.2 44.8l9.6 -9.6 9.6 9.6 -4.663 -20.204A12.8 12.8 0 0 0 25.6 12.8 12.8 12.8 0 0 0 12.8 0m0 6.4a6.4 6.4 0 0 1 6.4 6.4 6.4 6.4 0 0 1 -6.4 6.4 6.4 6.4 0 0 1 -6.4 -6.4 6.4 6.4 0 0 1 6.4 -6.4"/></svg>