<svg
            width="40"
            height="40"
            viewBox="0 0 40 40"
            xmlns="http://www.w3.org/2000/svg"
             className="text-gray-900 dark:text-gray-100 fill-current"
        >
            <path d="M26.25 20c-1.606 0 -3.159 -0.717 -4.375 -2.019 -1.182 -1.27 -1.904 -2.963 -2.031 -4.766 -0.136 -1.923 0.451 -3.692 1.652 -4.981S24.375 6.25 26.25 6.25c1.862 0 3.545 0.708 4.742 1.994 1.209 1.298 1.797 3.064 1.661 4.971 -0.13 1.805 -0.852 3.498 -2.031 4.766C29.409 19.283 27.857 20 26.25 20m10.299 13.75H15.952a2.165 2.165 0 0 1 -1.719 -0.834 2.361 2.361 0 0 1 -0.411 -2.015c0.658 -2.641 2.288 -4.832 4.713 -6.334C20.687 23.234 23.427 22.5 26.25 22.5c2.879 0 5.547 0.703 7.712 2.035 2.43 1.495 4.063 3.698 4.717 6.371a2.365 2.365 0 0 1 -0.416 2.014A2.163 2.163 0 0 1 36.549 33.75M11.484 20.313c-2.749 0 -5.166 -2.556 -5.391 -5.698 -0.111 -1.609 0.391 -3.098 1.406 -4.189 1.005 -1.08 2.422 -1.676 3.984 -1.676s2.969 0.598 3.979 1.685c1.023 1.1 1.523 2.585 1.406 4.181 -0.224 3.141 -2.641 5.696 -5.385 5.696m5.13 2.457c-1.374 -0.672 -3.158 -1.008 -5.129 -1.008 -2.302 0 -4.537 0.6 -6.295 1.689 -1.993 1.237 -3.334 3.038 -3.875 5.212a2.14 2.14 0 0 0 0.374 1.825A1.978 1.978 0 0 0 3.259 31.25h8.672a0.625 0.625 0 0 0 0.615 -0.513c0.009 -0.049 0.02 -0.098 0.032 -0.147 0.663 -2.661 2.215 -4.909 4.509 -6.548a0.625 0.625 0 0 0 -0.049 -1.046c-0.123 -0.072 -0.263 -0.148 -0.423 -0.226" />
        </svg>