<svg height="40" viewBox="0 0 40 40" width="40" xmlns="http://www.w3.org/2000/svg"><path d="m26.25 20c-1.606 0-3.159-.717-4.375-2.019-1.182-1.27-1.904-2.963-2.031-4.766-.136-1.923.451-3.692 1.652-4.981s2.879-1.984 4.754-1.984c1.862 0 3.545.708 4.742 1.994 1.209 1.298 1.797 3.064 1.661 4.971-.13 1.805-.852 3.498-2.031 4.766-1.213 1.302-2.765 2.019-4.372 2.019m10.299 13.75h-20.597a2.165 2.165 0 0 1 -1.719-.834 2.361 2.361 0 0 1 -.411-2.015c.658-2.641 2.288-4.832 4.713-6.334 2.152-1.333 4.892-2.067 7.715-2.067 2.879 0 5.547.703 7.712 2.035 2.43 1.495 4.063 3.698 4.717 6.371a2.365 2.365 0 0 1 -.416 2.014 2.163 2.163 0 0 1 -1.714.83m-25.065-13.437c-2.749 0-5.166-2.556-5.391-5.698-.111-1.609.391-3.098 1.406-4.189 1.005-1.08 2.422-1.676 3.984-1.676s2.969.598 3.979 1.685c1.023 1.1 1.523 2.585 1.406 4.181-.224 3.141-2.641 5.696-5.385 5.696m5.13 2.457c-1.374-.672-3.158-1.008-5.129-1.008-2.302 0-4.537.6-6.295 1.689-1.993 1.237-3.334 3.038-3.875 5.212a2.14 2.14 0 0 0 .374 1.825 1.978 1.978 0 0 0 1.571.763h8.672a.625.625 0 0 0 .615-.513c.009-.049.02-.098.032-.147.663-2.661 2.215-4.909 4.509-6.548a.625.625 0 0 0 -.049-1.046c-.123-.072-.263-.148-.423-.226"/></svg>