<svg width="80" height="80"
 className="text-gray-900 dark:text-gray-100 fill-current"
 viewBox="0 0 2.4 2.4" 
fill="none" xmlns="http://www.w3.org/2000/svg">
<path d="M1.2.4a.1.1 0 0 0-.1.1.19.19 0 0 1-.324.134.1.1 0 1 0-.141.141A.19.19 0 0 1 .5 1.1a.1.1 0 1 0 0 .2.19.19 0 0 1 .134.324.1.1 0 0 0 .141.141.19.19 0 0 1 .325.135.1.1 0 1 0 .2 0 .19.19 0 0 1 .324-.134.1.1 0 1 0 .141-.141A.19.19 0 0 1 1.9 1.3a.1.1 0 1 0 0-.2.19.19 0 0 1-.134-.324.1.1 0 0 0-.141-.141A.19.19 0 0 1 1.3.5a.1.1 0 0 0-.1-.1M.901.478a.3.3 0 0 1 .598 0 .3.3 0 0 1 .423.423.3.3 0 0 1 0 .598.3.3 0 0 1-.423.423.3.3 0 0 1-.598 0 .3.3 0 0 1-.423-.423.3.3 0 0 1 0-.598.3.3 0 0 1 .423-.423" fill="#0D0D0D"/><path d="M1.2 1a.2.2 0 1 0 0 .4.2.2 0 0 0 0-.4M.917.917a.4.4 0 1 1 .566.566.4.4 0 0 1-.566-.566" fill="#0D0D0D"/></svg>