<svg fill="none" height="80" viewBox="0 0 2.4 2.4" width="80" xmlns="http://www.w3.org/2000/svg"><g fill="#0d0d0d"><path d="m1.2.4a.1.1 0 0 0 -.1.1.19.19 0 0 1 -.324.134.1.1 0 1 0 -.141.141.19.19 0 0 1 -.135.325.1.1 0 1 0 0 .2.19.19 0 0 1 .134.324.1.1 0 0 0 .141.141.19.19 0 0 1 .325.135.1.1 0 1 0 .2 0 .19.19 0 0 1 .324-.134.1.1 0 1 0 .141-.141.19.19 0 0 1 .135-.325.1.1 0 1 0 0-.2.19.19 0 0 1 -.134-.324.1.1 0 0 0 -.141-.141.19.19 0 0 1 -.325-.135.1.1 0 0 0 -.1-.1m-.299.078a.3.3 0 0 1 .598 0 .3.3 0 0 1 .423.423.3.3 0 0 1 0 .598.3.3 0 0 1 -.423.423.3.3 0 0 1 -.598 0 .3.3 0 0 1 -.423-.423.3.3 0 0 1 0-.598.3.3 0 0 1 .423-.423"/><path d="m1.2 1a.2.2 0 1 0 0 .4.2.2 0 0 0 0-.4m-.283-.083a.4.4 0 1 1 .566.566.4.4 0 0 1 -.566-.566"/></g></svg>