<svg fill="none" height="58" viewBox="0 0 54 58" width="54" xmlns="http://www.w3.org/2000/svg" xmlns:xlink="http://www.w3.org/1999/xlink"><linearGradient id="a" gradientUnits="userSpaceOnUse" x1="52.055" x2=".004976" y1="30.7533" y2="33.2272"><stop offset="0" stop-color="#8137c8"/><stop offset=".471247" stop-color="#571bae"/><stop offset="1" stop-color="#581cb0"/></linearGradient><linearGradient id="b" gradientUnits="userSpaceOnUse" x1="0" x2="52.6602" y1="36.3921" y2="36.3921"><stop offset="0" stop-color="#9937da"/><stop offset=".312325" stop-color="#9139d9"/><stop offset=".655744" stop-color="#9f40df"/><stop offset="1" stop-color="#ae4cc5"/></linearGradient><linearGradient id="c" gradientUnits="userSpaceOnUse" x1="53.2587" x2=".02589" y1="22.1765" y2="18.3998"><stop offset="0" stop-color="#8c41d2"/><stop offset=".315" stop-color="#722cc0"/><stop offset=".615" stop-color="#5a1bb2"/><stop offset=".915" stop-color="#591db9"/></linearGradient><linearGradient id="d" gradientUnits="userSpaceOnUse" x1="26.6293" x2="26.6293" y1="0" y2="30.1372"><stop offset="0" stop-color="#fdb640"/><stop offset=".255" stop-color="#f2ac4d"/><stop offset=".59" stop-color="#d88978"/><stop offset=".76" stop-color="#a951c2"/><stop offset="1" stop-color="#9c3adf"/></linearGradient><linearGradient id="e" gradientUnits="userSpaceOnUse" x1="26.3301" x2="20.8107" y1="7.96081" y2="18.9971"><stop offset="0" stop-color="#8941d2"/><stop offset=".515" stop-color="#6d29ba"/><stop offset=".98" stop-color="#5f1890"/></linearGradient><linearGradient id="f" gradientUnits="userSpaceOnUse" x1="25.7317" x2="30.6755" y1="8.52944" y2="20.091"><stop offset="0" stop-color="#803aca"/><stop offset=".475" stop-color="#591aaf"/><stop offset=".805" stop-color="#5617b0"/><stop offset=".95" stop-color="#641da9"/></linearGradient><path d="m26.3301 44.3529-26.3301-14.7843v12.4388l26.0275 15.9926 26.6327-15.9926v-12.4388z" fill="url(#a)"/><path d="m2.39365 28.4313-2.39365 1.1373 26.3301 14.7843 26.3301-14.7843-2.3936-1.1373-23.9365 13.6471z" fill="url(#b)"/><path d="m26.3301 42.0784 26.9286-14.7843v-12.5098l-26.3302 15.353-26.9285-15.353v12.5098z" fill="url(#c)"/><path clip-rule="evenodd" d="m0 14.7843 26.3301-14.7843 26.9286 14.7843-26.3302 15.3529zm26.3301-6.82352c-4.1889 2.27452-12.6863 6.93722-13.165 7.39212l13.165 7.3922 13.1651-7.9608z" fill="url(#d)" fill-rule="evenodd"/><path d="m26.3301 20.4706v-12.50979l-7.1809 3.98039-5.9841 3.4118 11.3698 6.2549z" fill="url(#e)"/><path d="m28.1254 21.6079-1.7953-1.1373v-12.50979l13.1651 6.82349z" fill="url(#f)"/></svg>