<svg width="54" height="58" viewBox="0 0 54 58" fill="none" xmlns="http://www.w3.org/2000/svg">
<path d="M26.3301 44.3529L0 29.5686V42.0074L26.0275 58L52.6602 42.0074V29.5686L26.3301 44.3529Z" fill="url(#paint0_linear_19_50)"/>
<path d="M2.39365 28.4313L0 29.5686L26.3301 44.3529L52.6602 29.5686L50.2666 28.4313L26.3301 42.0784L2.39365 28.4313Z" fill="url(#paint1_linear_19_50)"/>
<path d="M26.3301 42.0784L53.2587 27.2941V14.7843L26.9285 30.1373L0 14.7843V27.2941L26.3301 42.0784Z" fill="url(#paint2_linear_19_50)"/>
<path fill-rule="evenodd" clip-rule="evenodd" d="M0 14.7843L26.3301 0L53.2587 14.7843L26.9285 30.1372L0 14.7843ZM26.3301 7.96078C22.1412 10.2353 13.6438 14.898 13.1651 15.3529L26.3301 22.7451L39.4952 14.7843L26.3301 7.96078Z" fill="url(#paint3_linear_19_50)"/>
<path d="M26.3301 20.4706V7.96081L19.1492 11.9412L13.1651 15.353L24.5349 21.6079L26.3301 20.4706Z" fill="url(#paint4_linear_19_50)"/>
<path d="M28.1254 21.6079L26.3301 20.4706V7.96081L39.4952 14.7843L28.1254 21.6079Z" fill="url(#paint5_linear_19_50)"/>
<defs>
<linearGradient id="paint0_linear_19_50" x1="52.055" y1="30.7533" x2="0.00497564" y2="33.2272" gradientUnits="userSpaceOnUse">
<stop stop-color="#8137C8"/>
<stop offset="0.471247" stop-color="#571BAE"/>
<stop offset="1" stop-color="#581CB0"/>
</linearGradient>
<linearGradient id="paint1_linear_19_50" x1="0" y1="36.3921" x2="52.6602" y2="36.3921" gradientUnits="userSpaceOnUse">
<stop stop-color="#9937DA"/>
<stop offset="0.312325" stop-color="#9139D9"/>
<stop offset="0.655744" stop-color="#9F40DF"/>
<stop offset="1" stop-color="#AE4CC5"/>
</linearGradient>
<linearGradient id="paint2_linear_19_50" x1="53.2587" y1="22.1765" x2="0.0258902" y2="18.3998" gradientUnits="userSpaceOnUse">
<stop stop-color="#8C41D2"/>
<stop offset="0.315" stop-color="#722CC0"/>
<stop offset="0.615" stop-color="#5A1BB2"/>
<stop offset="0.915" stop-color="#591DB9"/>
</linearGradient>
<linearGradient id="paint3_linear_19_50" x1="26.6293" y1="0" x2="26.6293" y2="30.1372" gradientUnits="userSpaceOnUse">
<stop stop-color="#FDB640"/>
<stop offset="0.255" stop-color="#F2AC4D"/>
<stop offset="0.59" stop-color="#D88978"/>
<stop offset="0.76" stop-color="#A951C2"/>
<stop offset="1" stop-color="#9C3ADF"/>
</linearGradient>
<linearGradient id="paint4_linear_19_50" x1="26.3301" y1="7.96081" x2="20.8107" y2="18.9971" gradientUnits="userSpaceOnUse">
<stop stop-color="#8941D2"/>
<stop offset="0.515" stop-color="#6D29BA"/>
<stop offset="0.98" stop-color="#5F1890"/>
</linearGradient>
<linearGradient id="paint5_linear_19_50" x1="25.7317" y1="8.52944" x2="30.6755" y2="20.091" gradientUnits="userSpaceOnUse">
<stop stop-color="#803ACA"/>
<stop offset="0.475" stop-color="#591AAF"/>
<stop offset="0.805" stop-color="#5617B0"/>
<stop offset="0.95" stop-color="#641DA9"/>
</linearGradient>
</defs>
</svg>
